<?xml version="1.0" encoding="UTF-8"?>
<!DOCTYPE svg PUBLIC "-//W3C//DTD SVG 1.1//EN" "http://www.w3.org/Graphics/SVG/1.1/DTD/svg11.dtd">
<!-- Creator: CorelDRAW X7 -->
<svg xmlns="http://www.w3.org/2000/svg" xml:space="preserve" width="3.74333cm" height="3.74332cm" version="1.1" style="shape-rendering:geometricPrecision; text-rendering:geometricPrecision; image-rendering:optimizeQuality; fill-rule:evenodd; clip-rule:evenodd"
viewBox="0 0 518 518"
 xmlns:xlink="http://www.w3.org/1999/xlink">
 <defs>
  <style type="text/css">
   <![CDATA[
    .fil0 {fill:#222222}
   ]]>
  </style>
 </defs>
 <g id="Layer_x0020_1">
  <metadata id="CorelCorpID_0Corel-Layer"/>
  <path class="fil0" d="M43 0l432 0c24,0 43,19 43,43l0 432c0,24 -19,43 -43,43l-432 0c-24,0 -43,-19 -43,-43l0 -432c0,-24 19,-43 43,-43zm146 208c-4,-1 -23,-12 -26,-15l0 0 -12 -9c-1,0 -1,0 -1,0 -4,-4 -12,-12 -11,-18 1,-5 4,-7 7,-8 8,-1 16,9 21,15l0 0 0 0c3,3 4,5 4,6l0 0 7 10c0,0 1,1 1,1l0 0 0 0c3,5 9,16 10,18zm33 200c5,24 12,45 20,54 22,14 -2,-79 -2,-83 -6,-33 -10,-65 -14,-98l5 -6c58,54 132,124 141,127 3,2 4,0 6,0l1 -5c-32,-40 -81,-96 -126,-147 45,-50 94,-106 126,-147l-1 -5c-2,0 -3,-2 -6,0 -9,4 -83,73 -141,128l-8 -10c0,-24 1,-48 3,-72 0,-4 14,-99 -6,-82 -15,18 -18,78 -19,129 -4,-4 -7,-8 -11,-12 -3,-5 -6,-8 -10,-12l-13 -11c-5,-5 -14,-10 -23,-10 -7,0 -14,6 -16,15 -1,10 5,18 7,22 13,15 10,12 23,24 3,2 6,5 9,8 6,5 19,17 35,32 0,2 0,4 0,7 -16,14 -29,26 -35,31 -3,3 -6,6 -9,9 -13,11 -10,8 -23,23 -2,5 -8,12 -7,22 2,9 9,15 16,15 9,1 18,-5 23,-9l13 -12c4,-4 7,-7 10,-12 5,-5 10,-11 15,-17 1,13 2,25 4,37 2,14 4,28 7,43 2,8 4,16 6,24zm-33 -116c-11,4 -28,17 -38,24 -1,0 -1,0 -1,0 -4,4 -12,12 -11,18 1,5 4,8 7,8 8,1 16,-8 21,-15l0 0 0 0c3,-3 4,-5 4,-6l0 0c6,-9 14,-19 18,-29z"/>
 </g>
</svg>
